<?xml version="1.0" standalone="no"?>
<!DOCTYPE svg PUBLIC "-//W3C//DTD SVG 20010904//EN"
 "http://www.w3.org/TR/2001/REC-SVG-20010904/DTD/svg10.dtd">
<svg version="1.0" xmlns="http://www.w3.org/2000/svg"
 width="209.000000pt" height="207.000000pt" viewBox="0 0 209.000000 207.000000"
 preserveAspectRatio="xMidYMid meet">

<g transform="translate(0.000000,207.000000) scale(0.100000,-0.100000)"
fill="#393130" stroke="none">
<path d="M1180 2019 c-59 -22 -125 -40 -150 -41 -28 0 -88 13 -157 36 -129 41
-161 44 -218 16 -47 -23 -60 -39 -138 -172 -31 -53 -68 -105 -82 -116 -14 -12
-58 -33 -98 -48 -153 -57 -202 -94 -227 -169 -9 -29 -8 -54 9 -143 33 -170 31
-184 -41 -322 -55 -106 -62 -126 -62 -174 1 -73 24 -107 133 -195 50 -40 99
-87 110 -104 11 -18 31 -88 45 -155 18 -92 32 -133 51 -158 43 -56 67 -63 236
-69 174 -6 166 -3 303 -116 138 -113 198 -109 349 21 117 103 119 103 282 110
123 5 145 8 177 28 56 35 77 78 99 204 27 156 38 177 144 270 96 84 135 141
135 195 0 43 -18 85 -81 189 -69 115 -72 131 -54 253 26 177 17 235 -48 284
-18 13 -83 43 -146 65 -131 48 -152 64 -218 172 -69 113 -90 138 -133 160 -56
29 -101 24 -220 -21z"/>
</g>
</svg>